<svg xmlns="http://www.w3.org/2000/svg" viewBox="0 0 96.9 96.9"><defs><style>.cls-1{fill:#005993;}.cls-2{fill:#fdfdfe;}</style></defs><title>Asset 21</title><g id="Layer_2" data-name="Layer 2"><g id="footer"><circle class="cls-1" cx="48.45" cy="48.45" r="48.45"/><path class="cls-2" d="M87.05,47.26a42.63,42.63,0,0,0-1.16-8.34,47.08,47.08,0,0,0-1.56-4.75c-.47-1.19-1-2.34-1.58-3.51s-1.25-2.21-1.94-3.28a57.07,57.07,0,0,0-3.46-4.57c-1.11-1.15-2.22-2.31-3.43-3.37a42.74,42.74,0,0,0-6.87-4.84l-.26-.13a38.71,38.71,0,0,0-30.54-2.65A42.14,42.14,0,0,0,29.15,15c-.29.16-.58.31-.85.48a41.39,41.39,0,0,0-6,4.61,47,47,0,0,0-3.82,4c-.55.74-1.1,1.47-1.64,2.22a42.55,42.55,0,0,0-3.35,5.72c-.24.5-.5,1-.7,1.51a49.78,49.78,0,0,0-2,6.56c-.29,1.44-.52,2.88-.69,4.34-.18,1.63-.18,3.26-.2,4.89A39.82,39.82,0,0,0,11,57.7c.23.79.45,1.58.68,2.37a44.7,44.7,0,0,0,2.22,5.58c.55,1,1.07,1.93,1.63,2.88A42.68,42.68,0,0,0,19,73.4a48.34,48.34,0,0,0,3.89,3.95A42.45,42.45,0,0,0,29,81.81l.31.16A38,38,0,0,0,43,86.66a38.68,38.68,0,0,0,17.13-1.39,41.18,41.18,0,0,0,7.84-3.46,41.93,41.93,0,0,0,7.13-5.38c1-.94,1.86-2,2.8-2.93.75-1,1.52-1.91,2.22-2.91a45.89,45.89,0,0,0,3.07-5.14c.06-.13.11-.27.17-.4a39,39,0,0,0,3-8.84c.15-.93.31-1.85.45-2.78A41.09,41.09,0,0,0,87.05,47.26Zm-4,6.08a19,19,0,0,1-.45,2.37,32.68,32.68,0,0,1-2.48,7.52l-.2.34a30.93,30.93,0,0,1-3.58,5.91,24.9,24.9,0,0,1-2.82,3.25,31.26,31.26,0,0,1-5.57,4.69,33.44,33.44,0,0,1-15.53,5.7,34.45,34.45,0,0,1-28.61-10c-.12-.11-.22-.25-.33-.37a29.85,29.85,0,0,1-4-4.91,21.4,21.4,0,0,1-1.81-3.06,29.69,29.69,0,0,1-2.09-4.68,17.92,17.92,0,0,1-.81-2.77,29.16,29.16,0,0,1-1-5.24c0-.31-.05-.62-.07-.93a30.33,30.33,0,0,1,.1-6.46A28,28,0,0,1,15,38.81a29.52,29.52,0,0,1,2.12-5.62c.11-.22.24-.43.36-.65a31,31,0,0,1,3.46-5.48A6.75,6.75,0,0,1,21.8,26a32.7,32.7,0,0,1,5-4.89,15.57,15.57,0,0,1,1.74-1.28,33.22,33.22,0,0,1,11.68-5.25,34.56,34.56,0,0,1,26.83,4.39,4.86,4.86,0,0,1,1.28,1A8,8,0,0,1,70,21a27.6,27.6,0,0,1,3.56,3.19c.41.43.81.87,1.2,1.31.12.13.28.25.28.45a24.09,24.09,0,0,1,3.45,4.7c.35.57.65,1.18,1,1.78a32.48,32.48,0,0,1,2.45,6c0,.14.07.28.1.43a32.06,32.06,0,0,1,1.32,8.36A32.54,32.54,0,0,1,83,53.34Z"/><path class="cls-2" d="M67.82,55.85c-.28-.09-.43-.35-.64-.52a.82.82,0,0,0-1.06-.11A28.22,28.22,0,0,1,63,56.82c-.15.16-.42.17-.44.5-.13,1.94.26,3.65,2,4.8.65.43,1.33.8,2,1.21a2,2,0,0,1,.93.91,1.09,1.09,0,0,1,.33.58,13.49,13.49,0,0,1,.72,2.28,2.42,2.42,0,0,0,.54-.65,7.67,7.67,0,0,0,1-3,13.18,13.18,0,0,0,0-3.32A8.24,8.24,0,0,0,67.82,55.85Z"/><path class="cls-2" d="M33,60.46c-1.36-.83-2.72-1.68-4.06-2.53-.29-.19-.39-.06-.45.17-.15.53-.27,1.06-.4,1.6-.41,1.59-.81,3.19-1.3,4.76-.2.83-.41,1.65-.65,2.62l3.32-2.93L33,61C33.25,60.78,33.35,60.67,33,60.46Z"/><path class="cls-2" d="M44,42.38c.31-.54.59-1.1.94-1.62.23-.34.18-.55-.14-.74l-3.64-2.3c-.54-.35-.53-.35-.88.22l-.64,1c-.33.56-.67,1.11-1,1.66-.84,1.45-1.68,2.89-2.59,4.3L34.77,47c-.7,1.16-1.4,2.32-2.09,3.48a4.93,4.93,0,0,1-.6,1l-2.49,4.18c-.51.85-.51.85.29,1.38.07,0,.13.1.2.15,1.13.8,2.33,1.51,3.5,2.27.32.21.45.17.63-.16.54-1,1.13-1.93,1.7-2.9l1.21-2.15C38.33,52.12,39.56,50,40.77,48,41.84,46.09,42.9,44.23,44,42.38Z"/><path class="cls-2" d="M66.08,53.89q-1.26-2-2.47-4c-.15-.25-.26-.31-.53-.15-1.25.73-2.52,1.45-3.79,2.15-.28.15-.29.27-.13.52.72,1.17,1.42,2.34,2.13,3.52.09.15.24.29.2.49.26.31.46,0,.68-.06,1.24-.65,2.48-1.31,3.73-1.95C66.21,54.31,66.28,54.21,66.08,53.89Z"/><path class="cls-2" d="M62.81,48.42c-.25-.36-.45-.77-.67-1.15-.39-.65-.79-1.29-1.17-2-1.21-2.08-2.46-4.14-3.59-6.27-.48-.83-1-1.64-1.44-2.48-.75-1.37-1.57-2.7-2.23-4.12-.72-1.21-1.34-2.47-2-3.73a6.3,6.3,0,0,0-1.82-2.42,6.28,6.28,0,0,0-1-.42,3.21,3.21,0,0,0-2.23.41,2.88,2.88,0,0,0-1,2.35,4.57,4.57,0,0,0,.55,1.67l1.13,2.14.57,1,3.51,6.27,3.48,5.81c.5.81,1,1.63,1.49,2.45.09.13.2.25.28.39.55.92,1.1,1.85,1.73,2.72.15.2.27.25.51.1,1.24-.76,2.48-1.49,3.73-2.23C62.91,48.8,63,48.69,62.81,48.42Z"/><path class="cls-2" d="M54.33,46.63a.68.68,0,0,0-.71-.39H43.06a.71.71,0,0,0-.74.4c-.27.49-.59,1-.89,1.43-.6,1.14-1.45,2.13-2,3.33H57.1l-1.9-3.34C54.91,47.58,54.59,47.12,54.33,46.63Z"/><path class="cls-2" d="M71.6,46.16c-2.76,0-5.52,0-8.27,0a.92.92,0,0,0-.52,0c0,.4.37.66.46,1,.67,1.27,1.35,2.53,2,3.8a.58.58,0,0,0,.61.37c2,0,3.93,0,5.9,0,.35,0,.43-.12.43-.45,0-1.24,0-2.48,0-3.72a2.2,2.2,0,0,1,0-.44C72.31,46.31,72.13,46.16,71.6,46.16Z"/><path class="cls-2" d="M41.24,36.73l4.13,2.66c.2.13.32.16.47-.08a20.07,20.07,0,0,0,1.49-2.68,2.6,2.6,0,0,0,.23-.89,2.36,2.36,0,0,0-.37-1.09,3.5,3.5,0,0,0-2.74-1.56,1.67,1.67,0,0,0-1.49.5,11.89,11.89,0,0,0-1.88,2.72C41,36.55,41.08,36.62,41.24,36.73Z"/><path class="cls-2" d="M31.52,51.32a5.5,5.5,0,0,1,.62-1.08c.67-1.2,1.31-2.4,2-3.58.24-.4.19-.47-.26-.47-2.9,0-5.79,0-8.69,0-.43,0-.51.15-.51.54,0,1.47,0,3,0,4.42,0,.34.23.28.43.28h5.94C31.21,51.42,31.38,51.46,31.52,51.32Z"/></g></g></svg>