<svg xmlns="http://www.w3.org/2000/svg" xmlns:xlink="http://www.w3.org/1999/xlink" viewBox="0 0 280.89 76.15"><defs><style>.cls-1{fill:none;stroke:#cacaca;stroke-linecap:round;stroke-linejoin:round;}.cls-2{fill:url(#GradientFill_7);}.cls-3{fill:#686868;}</style><linearGradient id="GradientFill_7" x1="41.58" y1="63.3" x2="81.09" y2="19.79" gradientUnits="userSpaceOnUse"><stop offset="0" stop-color="#8d8d8d"/><stop offset="1" stop-color="#d7d7d7"/></linearGradient></defs><title>Asset 7</title><g id="Layer_2" data-name="Layer 2"><g id="body"><rect class="cls-1" x="0.5" y="0.5" width="279.89" height="75.15" rx="15.78"/><path class="cls-2" d="M74.16,39.85c-.06-7,5.77-10.47,6-10.63A13,13,0,0,0,70,23.7c-4.3-.45-8.47,2.57-10.66,2.57s-5.6-2.52-9.23-2.45a13.6,13.6,0,0,0-11.45,7c-5,8.57-1.26,21.16,3.48,28.09,2.38,3.39,5.15,7.17,8.78,7s4.87-2.26,9.16-2.26,5.49,2.26,9.19,2.18,6.21-3.41,8.5-6.83a27.82,27.82,0,0,0,3.88-7.92,12.26,12.26,0,0,1-7.47-11.25Zm-7-20.7A12.43,12.43,0,0,0,70,10.22a12.71,12.71,0,0,0-8.21,4.24c-1.76,2.06-3.33,5.43-2.92,8.6,3.1.23,6.29-1.56,8.28-3.91Z"/><path class="cls-3" d="M95.81,41.55l-2.13,7H89L97,23.83h5.76l8,24.72h-4.88l-2.24-7Zm7.08-3.41L101,32.05c-.48-1.51-.88-3.19-1.25-4.63h-.07c-.37,1.44-.77,3.16-1.18,4.63l-1.91,6.09Z"/><path class="cls-3" d="M113.82,36.63c0-2.35-.07-4.25-.14-5.94h4l.22,2.75h.07a7,7,0,0,1,6.13-3.15c4.1,0,7.52,3.52,7.52,9.09,0,6.46-4.08,9.57-8.15,9.57a5.86,5.86,0,0,1-5-2.38h-.08v9.24h-4.51Zm4.51,4.44a7.27,7.27,0,0,0,.11,1.25,4.13,4.13,0,0,0,4,3.15c2.86,0,4.55-2.38,4.55-5.9,0-3.16-1.54-5.73-4.44-5.73a4.28,4.28,0,0,0-4.07,3.34,6.36,6.36,0,0,0-.15,1.14Z"/><path class="cls-3" d="M135.28,36.63c0-2.35-.07-4.25-.14-5.94h4l.22,2.75h.07a7,7,0,0,1,6.13-3.15c4.1,0,7.52,3.52,7.52,9.09C153,45.84,149,49,144.89,49a5.86,5.86,0,0,1-5-2.38h-.08v9.24h-4.51Zm4.51,4.44a7.27,7.27,0,0,0,.11,1.25,4.13,4.13,0,0,0,4,3.15c2.86,0,4.55-2.38,4.55-5.9,0-3.16-1.54-5.73-4.44-5.73a4.28,4.28,0,0,0-4.07,3.34,6.36,6.36,0,0,0-.15,1.14Z"/><path class="cls-3" d="M164.45,43.64a12.38,12.38,0,0,0,6,1.57c2.87,0,4.48-1.35,4.48-3.37s-1.25-3-4.37-4.11c-4.1-1.47-6.71-3.63-6.71-7.19,0-4.07,3.38-7.11,8.77-7.11a12.85,12.85,0,0,1,5.9,1.24l-1.06,3.64a10.73,10.73,0,0,0-5-1.18c-2.86,0-4.07,1.5-4.07,3,0,1.91,1.43,2.79,4.73,4.07,4.29,1.62,6.34,3.78,6.34,7.34,0,4-3,7.44-9.35,7.44a14.29,14.29,0,0,1-6.71-1.57Z"/><path class="cls-3" d="M188.4,26.1v4.59h4.29v3.37H188.4V42c0,2.2.59,3.3,2.31,3.3a6.09,6.09,0,0,0,1.76-.18l.07,3.41a9.83,9.83,0,0,1-3.26.47,5.16,5.16,0,0,1-3.89-1.46c-1-1-1.43-2.68-1.43-5v-8.4h-2.53V30.69H184V27.35Z"/><path class="cls-3" d="M212.87,39.46c0,6.56-4.63,9.49-9.17,9.49-5,0-8.95-3.44-8.95-9.2s3.85-9.46,9.24-9.46S212.87,34,212.87,39.46Zm-13.47.18c0,3.45,1.73,6,4.44,6s4.37-2.49,4.37-6.12c0-2.79-1.25-6-4.33-6S199.4,36.67,199.4,39.64Z"/><path class="cls-3" d="M216.57,36.45c0-2.42,0-4.18-.14-5.76h3.88l.19,3.37h.11a5.34,5.34,0,0,1,4.91-3.77,4.45,4.45,0,0,1,1.07.11v4.21a7.63,7.63,0,0,0-1.36-.11,4,4,0,0,0-4,3.42,8,8,0,0,0-.11,1.35v9.28h-4.51Z"/><path class="cls-3" d="M232.49,40.89c.11,3.22,2.61,4.62,5.51,4.62A14.33,14.33,0,0,0,243,44.7l.66,3.08a16.06,16.06,0,0,1-6.24,1.14c-5.79,0-9.21-3.56-9.21-9,0-5,3-9.61,8.73-9.61s7.71,4.76,7.71,8.69a11.52,11.52,0,0,1-.15,1.91Zm7.85-3.16c0-1.65-.69-4.36-3.7-4.36-2.79,0-4,2.53-4.15,4.36Z"/></g></g></svg>