<svg xmlns="http://www.w3.org/2000/svg" xmlns:xlink="http://www.w3.org/1999/xlink" viewBox="0 0 96.9 96.9"><defs><style>.cls-1{fill:#005993;}.cls-2,.cls-3,.cls-4,.cls-5{fill-rule:evenodd;}.cls-2{fill:url(#GradientFill_1);}.cls-3{fill:url(#GradientFill_2);}.cls-4{fill:url(#GradientFill_3);}.cls-5{fill:url(#GradientFill_4);}</style><linearGradient id="GradientFill_1" x1="41.44" y1="18.53" x2="54.3" y2="71.33" gradientUnits="userSpaceOnUse"><stop offset="0" stop-color="#006883"/><stop offset="1" stop-color="#8acdcd"/></linearGradient><linearGradient id="GradientFill_2" x1="25.76" y1="26.04" x2="60.8" y2="44.98" gradientUnits="userSpaceOnUse"><stop offset="0" stop-color="#31b5b1"/><stop offset="1" stop-color="#dae392"/></linearGradient><linearGradient id="GradientFill_3" x1="66.08" y1="57.68" x2="66.08" y2="39.43" gradientUnits="userSpaceOnUse"><stop offset="0" stop-color="#f9be71"/><stop offset="1" stop-color="#f0885c"/></linearGradient><linearGradient id="GradientFill_4" x1="32.55" y1="79.84" x2="60.22" y2="51.67" gradientUnits="userSpaceOnUse"><stop offset="0" stop-color="#6e3088"/><stop offset="1" stop-color="#e4232a"/></linearGradient></defs><title>Asset 20</title><g id="Layer_2" data-name="Layer 2"><g id="footer"><circle class="cls-1" cx="48.45" cy="48.45" r="48.45"/><path class="cls-2" d="M26.53,48.45V24.28a2.6,2.6,0,0,1,2.37-2.56,4.12,4.12,0,0,1,2.19.61L75.41,46.56a2,2,0,0,1,0,3.77L31.09,74.57a4.12,4.12,0,0,1-2.19.61,2.59,2.59,0,0,1-2.37-2.56Z"/><path class="cls-3" d="M55.32,48.61,28.48,21.77a2,2,0,0,1,.42-.05,4.12,4.12,0,0,1,2.19.61L63.74,40.19Z"/><path class="cls-4" d="M63.54,56.83l-8.22-8.22,8.42-8.42,11.67,6.37a2,2,0,0,1,0,3.77Z"/><path class="cls-5" d="M28.76,75.17l0,0L55.32,48.61l8.22,8.22L31.09,74.57a4.12,4.12,0,0,1-2.19.61Z"/></g></g></svg>