<svg xmlns="http://www.w3.org/2000/svg" viewBox="0 0 96.9 96.9"><defs><style>.cls-1{fill:#005993;}.cls-2{fill:#fff;fill-rule:evenodd;}</style></defs><title>Asset 17</title><g id="Layer_2" data-name="Layer 2"><g id="footer"><circle class="cls-1" cx="48.45" cy="48.45" r="48.45"/><path class="cls-2" d="M40.49,48.69V78.3a.78.78,0,0,0,.77.77h11A.78.78,0,0,0,53,78.3V48.21h8a.77.77,0,0,0,.77-.71l.77-9.06a.78.78,0,0,0-.77-.84H53V31.17a2.73,2.73,0,0,1,2.73-2.73H61.9a.77.77,0,0,0,.77-.77V18.6a.77.77,0,0,0-.77-.77H51.52a11,11,0,0,0-11,11V37.6H35a.77.77,0,0,0-.77.77v9.07a.77.77,0,0,0,.77.77h5.49Z"/></g></g></svg>