<svg xmlns="http://www.w3.org/2000/svg" viewBox="0 0 99.17 99.17"><defs><style>.cls-1{fill:#005993;}</style></defs><title>Asset 22</title><g id="Layer_2" data-name="Layer 2"><g id="footer"><path class="cls-1" d="M99.17,49.59A49.59,49.59,0,1,1,49.59,0,49.63,49.63,0,0,1,99.17,49.59Zm-95.07,0A45.49,45.49,0,1,0,49.59,4.1,45.54,45.54,0,0,0,4.1,49.59Z"/><path class="cls-1" d="M71.19,44.9l-20.47-15a1.94,1.94,0,0,0-2.27,0L28,44.9a1.92,1.92,0,0,0-.76,1.25,1.87,1.87,0,0,0,.35,1.43,1.9,1.9,0,0,0,1.25.76A1.94,1.94,0,0,0,30.24,48L49.59,33.83,68.93,48a1.84,1.84,0,0,0,1.13.37,1.93,1.93,0,0,0,1.55-.78A1.91,1.91,0,0,0,72,46.15,1.85,1.85,0,0,0,71.19,44.9Z"/><path class="cls-1" d="M65.3,46.81a1.92,1.92,0,0,0-1.92,1.92V65.8H56v-9a6.41,6.41,0,0,0-12.81,0v9H35.79V48.73a1.92,1.92,0,1,0-3.83,0v19a1.92,1.92,0,0,0,1.91,1.91H45.1A2,2,0,0,0,47,67.72V56.84a2.58,2.58,0,0,1,5.15,0v11a1.92,1.92,0,0,0,1.91,1.77H65.3a1.91,1.91,0,0,0,1.91-1.91v-19A1.91,1.91,0,0,0,65.3,46.81Z"/></g></g></svg>