<svg xmlns="http://www.w3.org/2000/svg" xmlns:xlink="http://www.w3.org/1999/xlink" viewBox="0 0 280.89 76.15"><defs><style>.cls-1{fill:none;stroke:#cacaca;stroke-linecap:round;stroke-linejoin:round;}.cls-2{fill:#6f6f6f;}.cls-2,.cls-3,.cls-4,.cls-5,.cls-6,.cls-7{fill-rule:evenodd;}.cls-3{fill:url(#GradientFill_12);}.cls-4{fill:url(#GradientFill_11);}.cls-5{fill:url(#GradientFill_10);}.cls-6{fill:url(#GradientFill_9);}.cls-7{fill:#fff;}</style><linearGradient id="GradientFill_12" x1="48.7" y1="14.34" x2="58.9" y2="56.23" gradientUnits="userSpaceOnUse"><stop offset="0" stop-color="#4c4c4c"/><stop offset="1" stop-color="#bcbcbc"/></linearGradient><linearGradient id="GradientFill_11" x1="36.26" y1="20.3" x2="64.06" y2="35.33" gradientUnits="userSpaceOnUse"><stop offset="0" stop-color="#8d8d8d"/><stop offset="1" stop-color="#d9d9d9"/></linearGradient><linearGradient id="GradientFill_10" x1="68.25" y1="45.4" x2="68.25" y2="30.92" gradientUnits="userSpaceOnUse"><stop offset="0" stop-color="#c9c9c9"/><stop offset="1" stop-color="#a5a5a5"/></linearGradient><linearGradient id="GradientFill_9" x1="41.64" y1="62.98" x2="63.6" y2="40.63" gradientUnits="userSpaceOnUse"><stop offset="0" stop-color="#4b4b4b"/><stop offset="1" stop-color="#5c5c5c"/></linearGradient></defs><title>Asset 5</title><g id="Layer_2" data-name="Layer 2"><g id="body"><rect class="cls-1" x="0.5" y="0.5" width="279.89" height="75.15" rx="15.78"/><path class="cls-2" d="M150,55.14a11,11,0,0,1-2.17-3L151,50.83a6.43,6.43,0,0,0,1,1.49,4.32,4.32,0,0,0,3.2,1.47,4.26,4.26,0,0,0,3.33-1.56,5.55,5.55,0,0,0,.9-3.28V47.72c-2.25,2.89-7.16,2.48-9.91-.51a8.67,8.67,0,0,1,.06-11.57c2.93-2.9,7.28-3.27,9.84-.52h0V33.74h3.41V48.56c0,3.77-1.39,5.9-3.11,7.14A8.06,8.06,0,0,1,155.09,57a7.55,7.55,0,0,1-5.1-1.88ZM231.7,56h0l3.29-7.8-5.82-13.51h3.31l4.16,9.62,4.06-9.62H244L235,56ZM216,48.51h0a5.28,5.28,0,0,1-1.47-3.62,4.6,4.6,0,0,1,1.21-3.19,7.33,7.33,0,0,1,5.46-2,7.1,7.1,0,0,1,3.52.81,3.21,3.21,0,0,0-3.44-3.29,3.33,3.33,0,0,0-3.24,2.1l-3-1.21a6.14,6.14,0,0,1,6.14-3.9,7,7,0,0,1,5.08,2,7,7,0,0,1,1.66,5.16v8.18h-3.26V48.05a5.35,5.35,0,0,1-1.78,1.41,6.25,6.25,0,0,1-2.72.55,6.17,6.17,0,0,1-4.18-1.5Zm-104-7h0a8.12,8.12,0,1,1,8.12,8.2,8.12,8.12,0,0,1-8.12-8.2Zm17.63,0h0a8.12,8.12,0,1,1,8.12,8.2,8.11,8.11,0,0,1-8.12-8.2ZM89.93,45.78h0a12.69,12.69,0,0,1,17.74-18.13l-2.43,2.54a8.87,8.87,0,0,0-12.58.17,9.43,9.43,0,0,0-.08,13,9,9,0,0,0,12.85.21,7.56,7.56,0,0,0,1.83-4.38H99V35.75H110.6a14.64,14.64,0,0,1,.19,2.65,11.71,11.71,0,0,1-3.15,7.86,11.58,11.58,0,0,1-8.48,3.38,13.24,13.24,0,0,1-9.23-3.86Zm82.45,1.46h0a8.87,8.87,0,0,1,0-11.62,7.13,7.13,0,0,1,10.64,0,12.4,12.4,0,0,1,2.09,3.77l-10.83,4.56a4.23,4.23,0,0,0,3.85,2.49,4.46,4.46,0,0,0,4.05-2.28L185,46.05h0c-.33.43-.73.85-1,1.19a8.23,8.23,0,0,1-11.6,0Zm20.35,2.29h0V27.94h6.94c4.19,0,7.35,2.93,7.35,6.54A6.63,6.63,0,0,1,200.31,41H196v8.51Zm16.44,0h0V27.94h3.29V49.53Zm-44.08-.35h0V25h3.6V49.18Zm59.56-6h0a5.86,5.86,0,0,0-3.11-.79c-2.34,0-3.66,1.18-3.66,2.48s1.38,2.16,2.67,2.16a4.13,4.13,0,0,0,4.1-3.85ZM124.58,41.46h0a4.55,4.55,0,1,0-9.06,0,4.55,4.55,0,1,0,9.06,0Zm17.63,0h0a4.55,4.55,0,1,0-9.06,0,4.55,4.55,0,1,0,9.06,0ZM159.44,43h0a5.48,5.48,0,0,0,.13-.58.32.32,0,0,0,0-.08,4.94,4.94,0,0,0,.07-.87,7,7,0,0,0-.07-.81l0-.11a4.21,4.21,0,0,0-.18-.72,4.47,4.47,0,0,0-4.17-3.26,4.7,4.7,0,0,0-4.36,5,4.67,4.67,0,0,0,4.43,4.89A4.52,4.52,0,0,0,159.44,43Zm14.28-1.78h0L181,38.11a3.34,3.34,0,0,0-3-1.69c-2.75,0-4.64,3.12-4.24,4.75Zm29.94-6.62h0A3.45,3.45,0,0,0,200,31.14h-4V38h4.14A3.45,3.45,0,0,0,203.66,34.55Z"/><path class="cls-3" d="M36.87,38.08V18.9a2.06,2.06,0,0,1,1.88-2,3.15,3.15,0,0,1,1.73.49L75.65,36.58a1.55,1.55,0,0,1,0,3L40.48,58.8a3.25,3.25,0,0,1-1.73.48,2.06,2.06,0,0,1-1.88-2Z"/><path class="cls-4" d="M59.71,38.2,38.42,16.91a1.86,1.86,0,0,1,.33,0,3.15,3.15,0,0,1,1.73.49L66.39,31.52Z"/><path class="cls-5" d="M66.23,44.72,59.71,38.2l6.68-6.68,9.26,5.06a1.55,1.55,0,0,1,0,3Z"/><path class="cls-6" d="M38.64,59.27h0L59.71,38.2l6.52,6.52L40.48,58.8a3.25,3.25,0,0,1-1.73.48Z"/><path class="cls-7" d="M234.22,55.8h0v0h0v0h0Z"/><path class="cls-7" d="M234.25,55.8h0v0h0Zm0,0Z"/><polygon class="cls-7" points="234.28 55.79 234.26 55.79 234.26 55.78 234.27 55.78 234.27 55.78 234.26 55.78 234.26 55.77 234.27 55.77 234.28 55.76 234.25 55.76 234.25 55.8 234.28 55.8 234.28 55.79"/><path class="cls-7" d="M234.31,55.8v0h0v0h0Zm0,0Z"/><polygon class="cls-7" points="234.33 55.76 234.3 55.76 234.3 55.77 234.31 55.77 234.31 55.8 234.32 55.8 234.32 55.77 234.33 55.77 234.33 55.76"/><polygon class="cls-7" points="234.35 55.79 234.34 55.79 234.34 55.78 234.35 55.78 234.35 55.78 234.34 55.78 234.34 55.77 234.35 55.77 234.35 55.76 234.33 55.76 234.33 55.8 234.35 55.8 234.35 55.79"/><path class="cls-7" d="M234.38,55.79v0a0,0,0,0,0,0,0h0v0h0Zm0,0h0v0h0Z"/><path class="cls-7" d="M234.42,55.79h0a0,0,0,0,0,0,0h0v0h0Zm0,0Zm0,0Z"/><polygon class="cls-7" points="234.45 55.76 234.45 55.76 234.44 55.78 234.44 55.78 234.44 55.78 234.43 55.76 234.43 55.76 234.44 55.78 234.44 55.8 234.44 55.8 234.44 55.78 234.45 55.76"/><polygon class="cls-7" points="234.5 55.79 234.48 55.79 234.48 55.75 234.47 55.75 234.47 55.8 234.5 55.8 234.5 55.79"/><path class="cls-7" d="M234.54,55.79v0l0,0v0h0Zm0,0h0v0h0Z"/><path class="cls-7" d="M234.59,55.8v0h0v0h0l0,0v0h0Z"/><path class="cls-7" d="M234.63,55.79v0l0,0a0,0,0,0,0,0,0v0h0Zm0,0h0v0h0Z"/><polygon class="cls-7" points="234.71 55.8 234.71 55.75 234.7 55.75 234.68 55.78 234.66 55.75 234.66 55.75 234.66 55.8 234.66 55.8 234.66 55.77 234.66 55.77 234.68 55.8 234.69 55.8 234.7 55.77 234.7 55.77 234.7 55.8 234.71 55.8"/><path class="cls-7" d="M234.76,55.8l0,0h0v0h0v0h0v0Zm0,0h0v0h0Z"/><path class="cls-7" d="M234.8,55.79v0h0l0,0s0,0,0,0h0Z"/><polygon class="cls-7" points="234.83 55.75 234.8 55.75 234.8 55.75 234.81 55.75 234.81 55.8 234.82 55.8 234.82 55.75 234.83 55.75 234.83 55.75"/><polygon class="cls-7" points="234.87 55.79 234.85 55.79 234.85 55.77 234.87 55.77 234.87 55.77 234.85 55.77 234.85 55.75 234.87 55.75 234.87 55.75 234.84 55.75 234.84 55.8 234.87 55.8 234.87 55.79"/><path class="cls-7" d="M234.92,55.8l0,0s0,0,0,0h0v0h0v0h0l0,0Zm0,0h0s0,0,0,0h0v0h0Z"/></g></g></svg>