<svg xmlns="http://www.w3.org/2000/svg" viewBox="0 0 200 50.05"><defs><style>.cls-1,.cls-2{fill:#005993;}.cls-2,.cls-3{fill-rule:evenodd;}.cls-3{fill:#d71249;}</style></defs><title>Asset 5</title><g id="Layer_2" data-name="Layer 2"><g id="header"><path class="cls-1" d="M57.39,36.34v-4H54.62V28.08h-5v4.27H47.07v4h2.52V43.7a6,6,0,0,0,6.08,5.79l1.71-.06V45l-.33,0a2.44,2.44,0,0,1-2.44-2.44V36.34Z"/><path class="cls-1" d="M46.13,42.48H33.21a4.08,4.08,0,0,0,4.09,3.76,4.15,4.15,0,0,0,3.57-2.13h4.8a9.36,9.36,0,0,1-3.19,4.24A8.55,8.55,0,0,1,37.36,50,8.65,8.65,0,0,1,31,47.35a9.1,9.1,0,0,1-2.6-6.44,9,9,0,0,1,2.54-6.36,8.84,8.84,0,0,1,12.8,0,9.11,9.11,0,0,1,2.53,6.58c0,.39-.07,1-.13,1.35m-4.84-3.43a4.06,4.06,0,0,0-8,0Z"/><path class="cls-1" d="M21.42,36.88A4.53,4.53,0,0,1,26,32.34h.49V49.49h-5Z"/><path class="cls-1" d="M59.42,36.88A4.53,4.53,0,0,1,64,32.34h.49V49.49h-5Z"/><path class="cls-1" d="M77.74,49.48V39.12A2.74,2.74,0,0,0,75,36.36a2.77,2.77,0,0,0-2.87,2.84V49.48H67V32.37h4.77v1.82h.08a6.14,6.14,0,0,1,11,3.74V49.48Z"/><path class="cls-1" d="M118.78,32.36v1.82h-.06a4.57,4.57,0,0,0-2.14-1.84,6.76,6.76,0,0,0-2.79-.57,7.88,7.88,0,0,0-6.14,2.7,9.24,9.24,0,0,0-2.34,6.43,9.43,9.43,0,0,0,2.29,6.48,7.89,7.89,0,0,0,6.19,2.67,7,7,0,0,0,2.81-.56,4.15,4.15,0,0,0,2.12-1.88h.06v1.85h5V32.36ZM117.55,44a4.08,4.08,0,0,1-5.89,0,4.29,4.29,0,0,1-1.17-3,4.43,4.43,0,0,1,1.13-3.11,3.77,3.77,0,0,1,2.94-1.29,4,4,0,0,1,3,1.23,4.73,4.73,0,0,1,0,6.22"/><path class="cls-2" d="M174.15,14.14h11.71V24.46a38.45,38.45,0,0,1,12.24,4.05,20,20,0,1,0-36.19,0,38.2,38.2,0,0,1,12.24-4.05Z"/><path class="cls-3" d="M180,40a20,20,0,0,0,16.71-9,35.85,35.85,0,0,0-33.43,0A20,20,0,0,0,180,40"/><path class="cls-1" d="M137.11,49.48V39.12a2.74,2.74,0,0,0-2.75-2.76,2.77,2.77,0,0,0-2.86,2.84V49.48h-5.12V32.37h4.77v1.82h.07a6.15,6.15,0,0,1,11,3.74V49.48Z"/><path class="cls-1" d="M11.29,49.48a4.2,4.2,0,0,0,3.9-2.84c2.12-5.5,8.61-21.94,8.61-21.94H18.61L12.44,40.42,6.27,24.7H0L9.73,49.48Z"/><path class="cls-1" d="M99.86,36.19c3.3-1.8,3.1-4.86,2.76-6.56-.42-2.12-2.67-4.94-7.74-4.91H85.43V49.49h9.62c6.21,0,9-3.61,9-7.51a5.67,5.67,0,0,0-4.16-5.79M91.19,29.3h3.73a2.61,2.61,0,0,1,2.7,2.57,2.65,2.65,0,0,1-2.7,2.57H91.19Zm4.72,15.61H91.17V39h4.65a2.95,2.95,0,1,1,.09,5.89"/><path class="cls-1" d="M154.67,40l7.24-7.61H155.5l-5.5,6.1,0-9.27a4.53,4.53,0,0,0-4.54-4.54h-.71V49.46H150v-7.7l5.18,7.7h6.73Z"/></g></g></svg>