<svg xmlns="http://www.w3.org/2000/svg" xmlns:xlink="http://www.w3.org/1999/xlink" viewBox="0 0 99.17 99.17"><defs><style>.cls-1{fill:url(#linear-gradient);}.cls-2{fill:#fff;}</style><linearGradient id="linear-gradient" x1="81.85" y1="17.32" x2="12.67" y2="86.5" gradientUnits="userSpaceOnUse"><stop offset="0" stop-color="#0080b9"/><stop offset="1" stop-color="#004e8a"/></linearGradient></defs><title>Asset 26</title><g id="Layer_2" data-name="Layer 2"><g id="nút"><rect class="cls-1" width="99.17" height="99.17" rx="49.59"/><path class="cls-2" d="M75.68,64.6A11.49,11.49,0,0,0,77,59.34a12.45,12.45,0,0,0-6-10.29,18.68,18.68,0,0,1-1,3.65,8.61,8.61,0,0,1,3.41,6.64,7.85,7.85,0,0,1-1.18,4.11l-.39.64.89,3.33-3.6-.77-.59.35a14.61,14.61,0,0,1-15.09-.39,30.28,30.28,0,0,1-4.4.85,16.87,16.87,0,0,0,12.26,5,17.77,17.77,0,0,0,8.41-2.06l7.89,1.7Z"/><path class="cls-2" d="M45.47,26.73c-13.23,0-24,8.77-24,19.59A16.64,16.64,0,0,0,24,55l-2.47,9.32,9.91-2.12a27.59,27.59,0,0,0,14,3.72c13.25,0,24-8.77,24-19.59S58.72,26.73,45.47,26.73ZM35.09,50.22A3.27,3.27,0,1,1,38.36,47,3.27,3.27,0,0,1,35.09,50.22Zm10.89,0A3.27,3.27,0,1,1,49.25,47,3.28,3.28,0,0,1,46,50.22Zm10.9,0A3.27,3.27,0,1,1,60.15,47,3.28,3.28,0,0,1,56.88,50.22Z"/></g></g></svg>