<svg xmlns="http://www.w3.org/2000/svg" viewBox="0 0 17.63 23.4"><defs><style>.cls-1{fill:#fff;}</style></defs><title>Asset 3</title><g id="Layer_2" data-name="Layer 2"><g id="header"><g id="path6744"><path class="cls-1" d="M1.51,1.8C.57,2.52-2,6.41,3.07,15.06c5.4,9.13,10.42,8.68,11.42,8l-3.64-6C10,17.63,9.3,16.83,8,15.07a24.85,24.85,0,0,1-2.63-4.31c-.53-1.14-1-2.31-.09-2.84Z"/></g><g id="path6746"><path class="cls-1" d="M17.25,21.43a.76.76,0,0,0,.26-1.06h0L14.67,15.7a.76.76,0,0,0-1.06-.25l-1.7,1,3.65,6,1.69-1Z"/></g><g id="path6748"><path class="cls-1" d="M8,6.24a.77.77,0,0,0,.26-1.07h0L5.34.37A.78.78,0,0,0,4.27.11l-1.69,1L6.31,7.27,8,6.25Z"/></g></g></g></svg>