<svg xmlns="http://www.w3.org/2000/svg" xmlns:xlink="http://www.w3.org/1999/xlink" viewBox="0 0 99.17 99.17"><defs><style>.cls-1{fill:url(#linear-gradient);}.cls-2{fill:#fff;}</style><linearGradient id="linear-gradient" x1="17.32" y1="81.85" x2="90.64" y2="8.54" gradientUnits="userSpaceOnUse"><stop offset="0" stop-color="#a0344a"/><stop offset="1" stop-color="#d0062f"/></linearGradient></defs><title>Asset 24</title><g id="Layer_2" data-name="Layer 2"><g id="nút"><rect class="cls-1" width="99.17" height="99.17" rx="49.59"/><path id="path6744" class="cls-2" d="M34.82,29.57C32.93,31,27.62,38.89,38,56.39,48.88,74.83,59,73.92,61.07,72.64l-7.36-12.1c-1.7,1-3.15-.59-5.84-4.15a50.47,50.47,0,0,1-5.3-8.7c-1.08-2.31-2-4.66-.2-5.74Z"/><path id="path6746" class="cls-2" d="M66.64,69.26a1.56,1.56,0,0,0,.53-2.16v0l-5.75-9.42a1.56,1.56,0,0,0-2.15-.5l-3.42,2.09,7.36,12.1,3.42-2.08Z"/><path id="path6748" class="cls-2" d="M48,38.55a1.56,1.56,0,0,0,.52-2.17h0l-5.92-9.69a1.56,1.56,0,0,0-2.15-.51L37,28.25l7.54,12.39L48,38.57Z"/></g></g></svg>