<svg xmlns="http://www.w3.org/2000/svg" viewBox="0 0 99.17 99.17"><defs><style>.cls-1{fill:#005993;}</style></defs><title>Asset 23</title><g id="Layer_2" data-name="Layer 2"><g id="footer"><path class="cls-1" d="M99.17,49.59A49.59,49.59,0,1,1,49.59,0,49.63,49.63,0,0,1,99.17,49.59Zm-95.07,0A45.49,45.49,0,1,0,49.59,4.1,45.54,45.54,0,0,0,4.1,49.59Z"/><path class="cls-1" d="M62.6,57h0a2.63,2.63,0,0,1-3.71,0l-7.45-7.45a2.61,2.61,0,0,0-3.71,0L40.28,57a2.62,2.62,0,0,1-3.7,0h0a2.61,2.61,0,0,1,0-3.71L47.73,42.15a2.63,2.63,0,0,1,3.71,0L62.6,53.31A2.63,2.63,0,0,1,62.6,57Z"/></g></g></svg>