<svg xmlns="http://www.w3.org/2000/svg" viewBox="0 0 96.9 96.9"><defs><style>.cls-1{fill:#005993;}.cls-2{fill:#fff;}</style></defs><title>Asset 18</title><g id="Layer_2" data-name="Layer 2"><g id="footer"><circle class="cls-1" cx="48.45" cy="48.45" r="48.45"/><path class="cls-2" d="M78.34,33.44a5.91,5.91,0,0,0-5.91-5.91h-48a5.91,5.91,0,0,0-5.91,5.91v30a5.91,5.91,0,0,0,5.91,5.91h48a5.91,5.91,0,0,0,5.91-5.91ZM58.61,49.62l-15,7.44C43,57.38,41,57,41,56.28V41c0-.68,2-1.11,2.61-.77L58,48.07C58.59,48.41,59.22,49.29,58.61,49.62Z"/></g></g></svg>