<svg xmlns="http://www.w3.org/2000/svg" viewBox="0 0 81.7 112.41"><defs><style>.cls-1{fill:#005993;}</style></defs><title>Asset 11</title><g id="Layer_2" data-name="Layer 2"><g id="body"><path class="cls-1" d="M22.8,46.85a1,1,0,0,1-.66-1.65l7.44-7.09a1,1,0,0,1,1.37,0,1,1,0,0,1,0,1.36l-7.45,7.09A.92.92,0,0,1,22.8,46.85Z"/><path class="cls-1" d="M22.8,46.85a1,1,0,0,1-.8-.43l-2.86-4.28a1,1,0,1,1,1.6-1.07l2.86,4.29a1,1,0,0,1-.27,1.33A.94.94,0,0,1,22.8,46.85Z"/><path class="cls-1" d="M20.66,86.69a1,1,0,0,1-.7-.3A1,1,0,0,1,20,85l10.23-9.71a1,1,0,0,1,1.35,0,1,1,0,0,1,0,1.36L21.32,86.42A1,1,0,0,1,20.66,86.69Z"/><path class="cls-1" d="M30.88,86.69a.93.93,0,0,1-.66-.27L20,76.71a1,1,0,0,1,1.33-1.39L31.54,85a1,1,0,0,1,0,1.36A.93.93,0,0,1,30.88,86.69Z"/><path class="cls-1" d="M80.74,112.41H1a1,1,0,0,1-1-1V11.3a1,1,0,0,1,1-1H24a1,1,0,0,1,1,1V22.43H56.72V11.3a1,1,0,0,1,1-1H80.74a1,1,0,0,1,1,1V111.45A1,1,0,0,1,80.74,112.41ZM1.92,110.49H79.78V12.26H58.64V23.39a1,1,0,0,1-1,1H24a1,1,0,0,1-1-1V12.26H1.92Z"/><path class="cls-1" d="M74.59,104.69H7.12a1,1,0,0,1-1-1V19a1,1,0,0,1,1-1H24a1,1,0,0,1,1,1v3.41H56.72V19a1,1,0,0,1,1-1H74.59a1,1,0,0,1,1,1v84.7A1,1,0,0,1,74.59,104.69ZM8.08,102.76H73.62V20h-15v3.4a1,1,0,0,1-1,1H24a1,1,0,0,1-1-1V20h-15Z"/><path class="cls-1" d="M36.1,51.74H15.43a1,1,0,0,1-1-1V33a1,1,0,0,1,1-1H36.1a1,1,0,0,1,1,1v17.8A1,1,0,0,1,36.1,51.74ZM16.39,49.82H35.14V33.94H16.39Z"/><path class="cls-1" d="M37.48,91.92H14.05a1,1,0,0,1-1-1V70.78a1,1,0,0,1,1-1H37.48a1,1,0,0,1,1,1V91A1,1,0,0,1,37.48,91.92ZM15,90h21.5V71.74H15Z"/><path class="cls-1" d="M67.65,37.74H43.22a1,1,0,0,1,0-1.93H67.65a1,1,0,0,1,0,1.93Z"/><path class="cls-1" d="M58.05,46.57H43.22a1,1,0,0,1,0-1.92H58.05a1,1,0,0,1,0,1.92Z"/><path class="cls-1" d="M67.65,78.09H43.22a1,1,0,0,1,0-1.92H67.65a1,1,0,0,1,0,1.92Z"/><path class="cls-1" d="M58.05,86.94H43.22a1,1,0,0,1,0-1.93H58.05a1,1,0,0,1,0,1.93Z"/><path class="cls-1" d="M57.68,24.35H24a1,1,0,0,1-1-1V7.69a1,1,0,0,1,1-1h8.87a8.07,8.07,0,0,1,15.92,0h8.87a1,1,0,0,1,1,1v15.7A1,1,0,0,1,57.68,24.35ZM25,22.43H56.72V8.65H48a1,1,0,0,1-1-.91,6.15,6.15,0,0,0-12.28,0,1,1,0,0,1-1,.91H25Z"/><path class="cls-1" d="M40.85,20.55a4.8,4.8,0,1,1,4.79-4.8A4.8,4.8,0,0,1,40.85,20.55Zm0-7.67a2.87,2.87,0,1,0,2.87,2.87A2.88,2.88,0,0,0,40.85,12.88Z"/></g></g></svg>