<svg xmlns="http://www.w3.org/2000/svg" viewBox="0 0 100.8 99.79"><defs><style>.cls-1{fill:#005993;}</style></defs><title>Asset 13</title><g id="Layer_2" data-name="Layer 2"><g id="body"><path class="cls-1" d="M74.47,26.24H49.93a.86.86,0,0,1-.86-.86V.86A.85.85,0,0,1,49.6.07a.86.86,0,0,1,.94.18L75.08,24.77a.86.86,0,0,1,.18.94A.85.85,0,0,1,74.47,26.24ZM50.79,24.52h21.6L50.79,2.94Z"/><path class="cls-1" d="M50,90.84a.83.83,0,0,1-.5-.16.87.87,0,0,1-.36-.72l.31-16.14a.87.87,0,0,1,1.37-.68L65.48,83.75a.85.85,0,0,1,.35.81.87.87,0,0,1-.55.69l-15,5.54A1,1,0,0,1,50,90.84ZM51.14,75.5l-.26,13.23,12.28-4.54Z"/><path class="cls-1" d="M95.64,43a.88.88,0,0,1-.51-.16L80.46,32.19a.87.87,0,0,1-.19-1.2l4.3-5.94a.87.87,0,0,1,1.21-.19l14.66,10.61a.87.87,0,0,1,.2,1.21l-4.3,5.93A.86.86,0,0,1,95.64,43ZM82.17,31.3l13.28,9.61,3.29-4.55-13.28-9.6Z"/><path class="cls-1" d="M74.47,99.79H.86A.86.86,0,0,1,0,98.93V.86A.87.87,0,0,1,.86,0H49.93a.86.86,0,0,1,.61.25L75.08,24.77a.86.86,0,0,1,.25.61v15.1a.87.87,0,0,1-.17.51l-24,33.14-.28,14.6,13.56-5,9.33-12.89a.86.86,0,0,1,1.56.5V98.93A.86.86,0,0,1,74.47,99.79ZM1.72,98.07H73.61V74L65.68,85a.85.85,0,0,1-.4.3l-15,5.54a.85.85,0,0,1-.8-.11.87.87,0,0,1-.36-.72l.31-16.14a1,1,0,0,1,.17-.49l24-33.13V25.74l-24-24H1.72Z"/><path class="cls-1" d="M50,90.84H12.5a.86.86,0,1,1,0-1.72H50a.86.86,0,1,1,0,1.72Z"/><path class="cls-1" d="M50,90.84a.83.83,0,0,1-.5-.16.87.87,0,0,1-.36-.72l.32-16.14a.89.89,0,0,1,.16-.49l35-48.28a.87.87,0,0,1,1.21-.19l14.66,10.61a.87.87,0,0,1,.2,1.21L65.67,85a.83.83,0,0,1-.39.3l-15,5.54A1,1,0,0,1,50,90.84Zm1.18-16.71-.29,14.6,13.55-5L98.74,36.36l-13.28-9.6Z"/><path class="cls-1" d="M75.11,71.32a.86.86,0,0,1-.53-.19L60.36,59.9a.86.86,0,0,1-.17-1.18l6.54-9a.86.86,0,0,1,.59-.34.89.89,0,0,1,.65.17L82.19,60.75a.86.86,0,0,1,.16,1.18l-6.54,9a.87.87,0,0,1-.58.35Zm-13-12.26L74.94,69.22l5.53-7.63L67.6,51.42Z"/><path class="cls-1" d="M39.78,66.15H12.5a.86.86,0,1,1,0-1.72H39.78a.86.86,0,1,1,0,1.72Z"/><path class="cls-1" d="M50,41.46H12.5a.86.86,0,0,1,0-1.72H50a.86.86,0,0,1,0,1.72Z"/></g></g></svg>