<svg xmlns="http://www.w3.org/2000/svg" viewBox="0 0 98.34 88.96"><defs><style>.cls-1{fill:#005993;}</style></defs><title>Asset 15</title><g id="Layer_2" data-name="Layer 2"><g id="body"><path class="cls-1" d="M87.2,87.29a.85.85,0,0,1-.58-.23L57.43,59.27a.87.87,0,0,1-.26-.61.86.86,0,0,1,.25-.6l12.7-12.39L87,29.24a.83.83,0,0,1,.65-.24.86.86,0,0,1,.6.32,6.23,6.23,0,0,1,1.32,3.82V82.75A6.2,6.2,0,0,1,87.81,87a.85.85,0,0,1-.59.26Zm-28-28.64,27.9,26.56a4.46,4.46,0,0,0,.73-2.46V33.14a4.49,4.49,0,0,0-.45-2L71.29,46.87Z"/><path class="cls-1" d="M83.32,89H13.54A6.23,6.23,0,0,1,9,87a.8.8,0,0,1-.23-.6.81.81,0,0,1,.26-.59l29.14-27.7a.83.83,0,0,1,1.16,0l9.05,8.69,21.7-21.17L87,29.24a.83.83,0,0,1,.65-.24.86.86,0,0,1,.6.32,6.23,6.23,0,0,1,1.32,3.82V82.75A6.23,6.23,0,0,1,83.32,89ZM10.89,86.42a4.49,4.49,0,0,0,2.65.86H83.32a4.56,4.56,0,0,0,4.53-4.53V33.14a4.49,4.49,0,0,0-.45-2L71.29,46.87,49,68.61a.84.84,0,0,1-1.17,0l-9.06-8.7Z"/><path class="cls-1" d="M70.71,47.11a.78.78,0,0,1-.33-.07.83.83,0,0,1-.51-.77V27.77a.84.84,0,0,1,.84-.84H83.32a6.17,6.17,0,0,1,4.89,2.39.84.84,0,0,1-.07,1.12L71.29,46.87A.82.82,0,0,1,70.71,47.11Zm.84-18.5V44.28L86.38,29.81a4.48,4.48,0,0,0-3.06-1.2Z"/><path class="cls-1" d="M9.65,87.29h0A.84.84,0,0,1,9,87a6.2,6.2,0,0,1-1.72-4.28V33.14a6.25,6.25,0,0,1,1-3.45A.83.83,0,0,1,9,29.33a.8.8,0,0,1,.67.23L28.35,47.5l4.73,4.61,6.29,6a.79.79,0,0,1,.26.6.87.87,0,0,1-.26.61L10.22,87.06A.81.81,0,0,1,9.65,87.29ZM9.3,31.54a4.37,4.37,0,0,0-.3,1.6V82.75a4.54,4.54,0,0,0,.73,2.46L37.57,58.75l-5.66-5.43-4.73-4.61Z"/><path class="cls-1" d="M26,47.28a.86.86,0,0,1-.59-.23l-17-16.28a.86.86,0,0,1-.12-1.08,6.21,6.21,0,0,1,5.17-2.76H26.15a.86.86,0,0,1,.6.25.87.87,0,0,1,.24.6l-.11,18.67a.85.85,0,0,1-.52.77A.87.87,0,0,1,26,47.28ZM10.2,30.08l15,14.4.09-15.87H13.54A4.53,4.53,0,0,0,10.2,30.08Z"/><path class="cls-1" d="M97.5,89H.84a.84.84,0,1,1,0-1.68H97.5a.84.84,0,0,1,0,1.68Z"/><path class="cls-1" d="M48.43,68.85a.82.82,0,0,1-.58-.24L31.91,53.32l-6.35-6.19a.84.84,0,0,1-.25-.6V.84A.85.85,0,0,1,26.15,0H70.71a.85.85,0,0,1,.84.84V46.27a.81.81,0,0,1-.26.6L49,68.61A.86.86,0,0,1,48.43,68.85ZM27,46.17l6.09,5.94L48.42,66.84,69.87,45.91V1.68H27Z"/><path class="cls-1" d="M63.7,11.84H35.45a.84.84,0,1,1,0-1.68H63.7a.84.84,0,1,1,0,1.68Z"/><path class="cls-1" d="M50.32,27.52H35.45a.84.84,0,1,1,0-1.68H50.32a.84.84,0,0,1,0,1.68Z"/><path class="cls-1" d="M58,43.2H35.45a.84.84,0,1,1,0-1.68H58a.84.84,0,0,1,0,1.68Z"/></g></g></svg>