<svg xmlns="http://www.w3.org/2000/svg" viewBox="0 0 98.35 75.98"><defs><style>.cls-1{fill:#005993;}</style></defs><title>Asset 12</title><g id="Layer_2" data-name="Layer 2"><g id="body"><path class="cls-1" d="M35.69,8.64h-25a.84.84,0,0,1-.85-.83A.85.85,0,0,1,10.69,7h25a.84.84,0,0,1,.84.85A.83.83,0,0,1,35.69,8.64Z"/><path class="cls-1" d="M33.65,17.13h-23a.84.84,0,1,1,0-1.68h23a.84.84,0,0,1,0,1.68Z"/><path class="cls-1" d="M26.34,25.6H10.69a.84.84,0,1,1,0-1.68H26.34a.84.84,0,0,1,0,1.68Z"/><path class="cls-1" d="M37,36.15a.88.88,0,0,1-.42-.11l-7.13-4.12H3.74A3.75,3.75,0,0,1,0,28.18V3.74A3.75,3.75,0,0,1,3.74,0H40.22A3.75,3.75,0,0,1,44,3.74V28.18a3.75,3.75,0,0,1-3.74,3.74H37.85v3.39a.84.84,0,0,1-.84.84ZM3.74,1.68A2.07,2.07,0,0,0,1.68,3.74V28.18a2.07,2.07,0,0,0,2.06,2.06H29.68a.88.88,0,0,1,.42.11l6.07,3.5V31.08a.82.82,0,0,1,.25-.59.83.83,0,0,1,.59-.25h3.22a2.06,2.06,0,0,0,2.06-2.06V3.74a2.06,2.06,0,0,0-2.06-2.06Z"/><path class="cls-1" d="M69.4,40.12a18.2,18.2,0,1,1,18.2-18.2A18.22,18.22,0,0,1,69.4,40.12Zm0-34.71A16.52,16.52,0,1,0,85.92,21.92,16.54,16.54,0,0,0,69.4,5.41Z"/><path class="cls-1" d="M97.5,76H41.29a.84.84,0,0,1-.84-.84c0-8.34,3.14-15.35,9.09-20.27A31.1,31.1,0,0,1,69.4,48.13a31.08,31.08,0,0,1,19.85,6.74c5.93,4.9,9.07,11.88,9.09,20.19,0,0,0,.06,0,.08A.84.84,0,0,1,97.5,76ZM42.14,74.3H96.65C96.2,57.49,82.31,49.82,69.4,49.82S42.59,57.49,42.14,74.3Z"/></g></g></svg>