<svg xmlns="http://www.w3.org/2000/svg" viewBox="0 0 50 50"><defs><style>.cls-1{fill:#005993;}</style></defs><title>Asset 8ldpi</title><g id="Layer_2" data-name="Layer 2"><g id="Sản_phẩm" data-name="Sản phẩm"><g id="Sản_phẩm-2" data-name="Sản phẩm"><path class="cls-1" d="M48.67,17.16,32.84,1.33a4.54,4.54,0,0,0-6.42,0L1.33,26.42a4.54,4.54,0,0,0,0,6.42l1.95,1.95h0L16.4,47.91H14.58a1,1,0,0,0,0,2.09H35.42a1,1,0,0,0,0-2.09H24.33L48.67,23.58A4.54,4.54,0,0,0,48.67,17.16ZM47.2,18.63a2.45,2.45,0,0,1,0,3.47L22.1,47.2a2.42,2.42,0,0,1-1.73.71h0a2.44,2.44,0,0,1-1.73-.71L5.49,34.06,29.59,10a1,1,0,0,0,0-1.47,1.05,1.05,0,0,0-1.47,0L4,32.58,2.8,31.37a2.46,2.46,0,0,1,0-3.48L27.89,2.8a2.46,2.46,0,0,1,3.48,0Z"/><path class="cls-1" d="M39.75,16a1,1,0,0,0-.73-.3,1.07,1.07,0,0,0-.74.3l-4.42,4.42a1.06,1.06,0,0,0,0,1.48l3,2.94a1,1,0,0,0,1.47,0l4.42-4.42a1,1,0,0,0,0-1.47Zm-2.21,6.63-1.47-1.47,3-2.95,1.47,1.48Z"/></g></g></g></svg>