<svg xmlns="http://www.w3.org/2000/svg" viewBox="0 0 50 45.94"><defs><style>.cls-1{fill:#005993;}.cls-2{fill:none;}</style></defs><title>Asset 12ldpi</title><g id="Layer_2" data-name="Layer 2"><g id="Sản_phẩm" data-name="Sản phẩm"><g id="Sản_phẩm-2" data-name="Sản phẩm"><path class="cls-1" d="M30.34,6.4a8.91,8.91,0,0,0-11.06-6,8.93,8.93,0,0,0-6,11.07,8.91,8.91,0,1,0,17.1-5Zm-2.07,6a7.39,7.39,0,1,1,.6-5.61A7.38,7.38,0,0,1,28.27,12.45Z"/><path class="cls-1" d="M21.58,8.09a1.84,1.84,0,0,1-2.31-1A1.76,1.76,0,0,1,20.6,5h0a1.88,1.88,0,0,1,2,.62.78.78,0,0,0,1.07.18.77.77,0,0,0,.18-1.07,3.28,3.28,0,0,0-3-1.33l-.18-.6a.76.76,0,0,0-.95-.52.76.76,0,0,0-.52,1l.18.6a3.22,3.22,0,0,0-1.67,3.69A3.36,3.36,0,0,0,21.9,9.59a1.84,1.84,0,0,1,2.3,1A1.51,1.51,0,0,1,24,11.84a2,2,0,0,1-1.15.86,1.88,1.88,0,0,1-2.05-.62.74.74,0,0,0-.5-.32.73.73,0,0,0-.57.12A.76.76,0,0,0,19.55,13a3.27,3.27,0,0,0,2.71,1.37l.27,0,.18.6a.77.77,0,0,0,.74.55l.21,0a.72.72,0,0,0,.46-.36.76.76,0,0,0,.06-.59l-.17-.6a3.45,3.45,0,0,0,1.31-1.23,3,3,0,0,0,.35-2.46A3.3,3.3,0,0,0,21.58,8.09Z"/><path class="cls-2" d="M38.36,12.92a15.84,15.84,0,0,1,2.33,1.57l1.09-4.64A4.77,4.77,0,0,0,38.36,12.92Z"/><path class="cls-1" d="M38.78,22.59a1.24,1.24,0,1,0-1.76,0,1.23,1.23,0,0,0,1.76,0Z"/><path class="cls-1" d="M10.16,27.53a1,1,0,0,0,1-1v0a1,1,0,0,0-2,0v0a1,1,0,0,0,1,1Z"/><path class="cls-1" d="M10.46,29.16a1,1,0,0,0-.56,1.26,11,11,0,0,0,4.54,5.44.9.9,0,0,0,.5.14,1,1,0,0,0,.51-1.81,9,9,0,0,1-3.73-4.47A1,1,0,0,0,10.46,29.16Z"/><path class="cls-1" d="M47.51,20.93l-2.27-.29a15.68,15.68,0,0,0-2.91-4.59L44,9a1,1,0,0,0-.19-.83A1,1,0,0,0,43,7.78h-.22a6.71,6.71,0,0,0-6.23,4.3,16.6,16.6,0,0,0-2.14-.68A1,1,0,1,0,34,13.3a13.46,13.46,0,0,1,6.45,3.6,1.81,1.81,0,0,0,.24.24,13.66,13.66,0,0,1,2.93,4.74,1,1,0,0,0,.8.63l2.85.35a.92.92,0,0,1,.78.89v4.93a.9.9,0,0,1-.78.88l-2.64.33a1,1,0,0,0-.82.68A13.44,13.44,0,0,1,39.51,37a1,1,0,0,0-.35.76v5.39a.88.88,0,0,1-.88.88H32.62a.88.88,0,0,1-.88-.88v-2a1,1,0,0,0-1-1H22.56a1,1,0,0,0-1,1v2a.88.88,0,0,1-.89.88H15a.88.88,0,0,1-.88-.88v-3.8a.94.94,0,0,0-.51-.86,13.56,13.56,0,0,1-1.87-22.63h0a.94.94,0,0,0,.28-.68,1,1,0,0,0-.29-.69,1,1,0,0,0-.68-.29,1,1,0,0,0-.65.26s0,0,0,.05a15.39,15.39,0,0,0-5.32,8.25H4.35a2.39,2.39,0,1,1,0-4.78,1,1,0,1,0,0-2,4.35,4.35,0,1,0,0,8.69H4.7a16.12,16.12,0,0,0-.11,1.85,15.53,15.53,0,0,0,7.62,13.36v3.24A2.82,2.82,0,0,0,15,45.94H20.7a2.84,2.84,0,0,0,2.84-2.83V42h6.24v1.08a2.83,2.83,0,0,0,2.83,2.83h5.67a2.84,2.84,0,0,0,2.84-2.83V38.17a15.64,15.64,0,0,0,4.36-6.42l2-.25A2.86,2.86,0,0,0,50,28.68V23.75A2.85,2.85,0,0,0,47.51,20.93Zm-6.82-6.44a15.91,15.91,0,0,0-2.33-1.58,4.76,4.76,0,0,1,3.42-3.06Z"/></g></g></g></svg>