<svg xmlns="http://www.w3.org/2000/svg" viewBox="0 0 50 38.2"><defs><style>.cls-1{fill:#005993;}</style></defs><title>Asset 11ldpi</title><g id="Layer_2" data-name="Layer 2"><g id="Sản_phẩm" data-name="Sản phẩm"><g id="Sản_phẩm-2" data-name="Sản phẩm"><path class="cls-1" d="M46.22,0H3.78A3.79,3.79,0,0,0,0,3.78V34.42A3.78,3.78,0,0,0,3.78,38.2H46.22A3.78,3.78,0,0,0,50,34.42V3.78A3.79,3.79,0,0,0,46.22,0Zm2.27,34.42a2.27,2.27,0,0,1-2.27,2.27H3.78a2.27,2.27,0,0,1-2.27-2.27V3.78A2.27,2.27,0,0,1,3.78,1.51H46.22a2.27,2.27,0,0,1,2.27,2.27Z"/><path class="cls-1" d="M24.76,25l-4.05-2.48a5.8,5.8,0,0,0,2.17-4.3l.16-4a5.53,5.53,0,0,0-5.56-5.48H16.42a5.53,5.53,0,0,0-5.55,5.51l.15,4a5.8,5.8,0,0,0,2.17,4.29L9.18,25A3.3,3.3,0,0,0,7.3,28v2a.76.76,0,0,0,.76.76H25.85a.76.76,0,0,0,.76-.76V28A3.3,3.3,0,0,0,24.76,25Zm.34,4.21H8.82V28A1.83,1.83,0,0,1,9.9,26.33L15,23.21a.79.79,0,0,0,.36-.68.73.73,0,0,0-.42-.64,4.34,4.34,0,0,1-2.4-3.69l-.15-4a4,4,0,0,1,4-4h1.05a4,4,0,0,1,4.05,3.93l-.16,4A4.32,4.32,0,0,1,19,21.89a.75.75,0,0,0-.06,1.32L24,26.34l.07,0a1.76,1.76,0,0,1,1,1.6Z"/><path class="cls-1" d="M42.05,12.29H32.71A.75.75,0,0,0,32,13a.76.76,0,0,0,.76.76h9.34a.76.76,0,0,0,.76-.76A.75.75,0,0,0,42.05,12.29Z"/><path class="cls-1" d="M42.05,19H32.71a.76.76,0,1,0,0,1.51h9.34a.76.76,0,1,0,0-1.51Z"/><path class="cls-1" d="M42.05,25.72H32.71a.76.76,0,1,0,0,1.51h9.34a.76.76,0,1,0,0-1.51Z"/></g></g></g></svg>