<svg xmlns="http://www.w3.org/2000/svg" viewBox="0 0 50 50.83"><defs><style>.cls-1{fill:#005993;}</style></defs><title>Asset 10ldpi</title><g id="Layer_2" data-name="Layer 2"><g id="Sản_phẩm" data-name="Sản phẩm"><g id="Sản_phẩm-2" data-name="Sản phẩm"><path class="cls-1" d="M21.22,1.84l.9,1.4a10.14,10.14,0,0,1,10.76,0l.9-1.4A11.65,11.65,0,0,0,21.22,1.84Z"/><path class="cls-1" d="M17.5,11.67H15.83a11.76,11.76,0,0,0,.9,4.49l1.54-.65A9.9,9.9,0,0,1,17.5,11.67Z"/><path class="cls-1" d="M31.34,20.9a9.9,9.9,0,0,1-3.84.77v1.66A11.53,11.53,0,0,0,32,22.44Z"/><path class="cls-1" d="M37.5,11.67a9.94,9.94,0,0,1-.77,3.84l1.54.64a11.67,11.67,0,0,0,.9-4.48Z"/><path class="cls-1" d="M27.5,3.33a8.34,8.34,0,1,0,8.33,8.34A8.33,8.33,0,0,0,27.5,3.33Zm0,15a6.67,6.67,0,1,1,6.67-6.66A6.67,6.67,0,0,1,27.5,18.33Z"/><path class="cls-1" d="M29.33,11.4l-1-.33V8.93A1.25,1.25,0,0,1,29.17,10h1.66a3,3,0,0,0-2.5-2.81V6.67H26.67v.52A3,3,0,0,0,24.17,10a2.07,2.07,0,0,0,1.5,1.93l1,.34V14.4a1.25,1.25,0,0,1-.84-1.07H24.17a3,3,0,0,0,2.5,2.82v.52h1.66v-.52a3,3,0,0,0,2.5-2.82A2.07,2.07,0,0,0,29.33,11.4Zm-2.66-.89-.48-.16c-.21-.07-.36-.21-.36-.35a1.25,1.25,0,0,1,.84-1.07Zm1.66,3.89V12.82l.48.16c.21.07.36.22.36.35A1.25,1.25,0,0,1,28.33,14.4Z"/><path class="cls-1" d="M49.76,34.41,47,31.67l2.75-2.75a.85.85,0,0,0,0-1.18L38.92,16.91a.83.83,0,0,0-1.18,0L27.08,27.57,15.59,16.08a.83.83,0,0,0-1.18,0L3.58,26.91a.83.83,0,0,0,0,1.18l6.08,6.08H0v1.66H10.83a.88.88,0,0,0,.33-.06l5.68-2.44H29.17v3.34H20a.83.83,0,0,0-.83.83.85.85,0,0,0,.48.76l10.83,5a.84.84,0,0,0,.84-.09L45.75,32.76,47.94,35,31.36,49.17H26.82l-15.7-5.79a.93.93,0,0,0-.29-.05H0V45H10.68l15.7,5.78a.71.71,0,0,0,.29,0h5a.82.82,0,0,0,.54-.2l17.5-15a.83.83,0,0,0,.09-1.17ZM16.67,31.67a.88.88,0,0,0-.33.06l-.2.09a4.14,4.14,0,0,1,7.67-.15Zm8.92,0A5.81,5.81,0,0,0,20,27.5a5.87,5.87,0,0,0-5.79,5.15l-2.6,1.11L5.35,27.5,15,17.84,28.82,31.67Zm5.15,9.87-6.95-3.21H30a.83.83,0,0,0,.83-.83V33.68l4.53,4.52Zm.17-10.14a3.74,3.74,0,1,1,4.36,4.35Zm5.71,5.71a5.79,5.79,0,0,0,1-.51l-.84.61ZM45.29,31,38,36.33a5.42,5.42,0,1,0-8.39-6.28l-1.3-1.3L38.33,18.68,48,28.33Z"/></g></g></g></svg>