<svg xmlns="http://www.w3.org/2000/svg" viewBox="0 0 50 50.66"><defs><style>.cls-1{fill:#005993;}</style></defs><title>Asset 9ldpi</title><g id="Layer_2" data-name="Layer 2"><g id="Sản_phẩm" data-name="Sản phẩm"><g id="Sản_phẩm-2" data-name="Sản phẩm"><path class="cls-1" d="M49.5,28.67l-1.19-1.19a3.38,3.38,0,0,0-4.78,0l-7.22,7.23v-.93a2.54,2.54,0,0,0-2.53-2.54h-22a.86.86,0,0,0-.6.25L8.44,34.27V32.93a.84.84,0,0,0-.84-.84H.84a.85.85,0,0,0-.84.84V49.82a.84.84,0,0,0,.84.84H7.6a.83.83,0,0,0,.84-.84V48.48l3.73-3.73h23.3a.87.87,0,0,0,.59-.24L49.51,31.06a1.71,1.71,0,0,0,0-2.39ZM6.76,49H1.69V33.78H6.76Zm28.36-5.92H11.82a.86.86,0,0,0-.6.25L8.44,46.09V36.66l3.73-3.73H33.78a.85.85,0,0,1,.84.85v2.53h-11V38H35.47a.85.85,0,0,0,.84-.85l8.42-8.48a1.68,1.68,0,0,1,2.38,0l1.2,1.2Z"/><path class="cls-1" d="M20.27,24.49a.85.85,0,0,1-.85-.85H17.73A2.55,2.55,0,0,0,19.42,26v1h1.69V26a2.53,2.53,0,0,0-.84-4.91.85.85,0,1,1,.84-.84H22.8a2.54,2.54,0,0,0-1.69-2.38v-1H19.42v1a2.53,2.53,0,0,0,.85,4.91.85.85,0,0,1,0,1.69Z"/><path class="cls-1" d="M20.27,29.55a7.6,7.6,0,1,0-7.6-7.6A7.6,7.6,0,0,0,20.27,29.55Zm0-13.51A5.92,5.92,0,1,1,14.35,22,5.92,5.92,0,0,1,20.27,16Z"/><path class="cls-1" d="M37.15,18.58a.85.85,0,0,1-.84-.85H34.62a2.55,2.55,0,0,0,1.69,2.38v1H38v-1a2.53,2.53,0,0,0-.85-4.91.85.85,0,1,1,.85-.85h1.69A2.53,2.53,0,0,0,38,12V11H36.31v1a2.53,2.53,0,0,0,.84,4.91.85.85,0,1,1,0,1.69Z"/><path class="cls-1" d="M37.15,23.64a7.6,7.6,0,0,0,7.6-7.6V7.6H43.06v3.68a7.57,7.57,0,0,0-10.65-1.17,8.09,8.09,0,0,0-1.17,1.17V5.07H29.55V16A7.61,7.61,0,0,0,37.15,23.64Zm0-13.51A5.91,5.91,0,1,1,31.24,16,5.91,5.91,0,0,1,37.15,10.13Z"/><path class="cls-1" d="M29.55,1.69h1.69V3.38H29.55Z"/><path class="cls-1" d="M36.31,0H38V1.69H36.31Z"/><path class="cls-1" d="M36.31,3.38H38V6.76H36.31Z"/><path class="cls-1" d="M43.06,4.22h1.69V5.91H43.06Z"/></g></g></g></svg>